<svg class="shadow-white shadow-lg" width="150" height="50.00000000000001" xmlns="http://www.w3.org/2000/svg">
 <g>
  <title>Layer 1</title>
  <path id="svg_1" d="m36.86005,89.53673c0,-0.01001 2.79092,-4.82412 6.20196,-10.69833l6.20232,-10.68046l7.22782,-6.0272c3.97541,-3.31473 7.23862,-6.03113 7.25156,-6.03613c0.01331,-0.005 -0.03921,0.12581 -0.11618,0.29058s-3.60888,7.69206 -7.84831,16.72767l-7.70838,16.42744l-5.60557,0.00715c-3.08299,0.00393 -5.60521,-0.00107 -5.60521,-0.01072l-0.00001,0zm107.82206,0.05469c-0.01007,-0.01001 -0.0187,-3.52274 -0.0187,-7.80572l0,-7.78714l2.53481,0l0,1.60518c0,0.88319 0.01079,1.60554 0.0241,1.60554s0.07482,-0.14476 0.13705,-0.32132c0.28488,-0.80956 0.77911,-1.56586 1.41614,-2.16669c0.57336,-0.54185 1.22874,-0.86567 2.00245,-0.9897c0.21726,-0.03467 0.40071,-0.04146 0.83558,-0.03002c0.54567,0.0143 0.83091,0.05361 1.16291,0.16155l0.10467,0.03396l0,2.61454l-0.29963,-0.14904c-0.52912,-0.26306 -1.05069,-0.36707 -1.67836,-0.33455c-0.40826,0.02073 -0.67624,0.07291 -1.00249,0.19479c-0.67192,0.25055 -1.21687,0.69233 -1.59779,1.29637c-0.5507,0.87354 -0.94385,1.99656 -1.06004,3.02843c-0.02086,0.1855 -0.03309,1.69418 -0.03777,4.66792l-0.00719,4.39449l-1.24888,0c-0.68667,0 -1.25679,-0.00858 -1.26687,-0.01859l0.00001,0zm-34.03092,-0.37994l0,-0.39852l4.63726,-6.33458l4.63762,-6.33493l-4.19879,-0.01358l-4.19879,-0.01394l-0.00755,-1.05868l-0.00719,-1.05868l12.14637,0l0,0.7152l-4.63834,6.36889c-2.551,3.50344 -4.63834,6.37532 -4.63834,6.38283c0,0.00679 2.06252,0.01287 4.58259,0.01287l4.58259,0l0,2.13166l-6.44907,0l-6.44835,0l0,-0.39852l-0.00001,-0.00002zm-6.88035,-8.05306c0,-0.00429 -0.77839,-2.10056 -1.72908,-4.65684c-1.77872,-4.78301 -1.87836,-5.07074 -2.019,-5.83848c-0.06583,-0.35992 -0.09928,-0.37029 -0.13848,-0.04146c-0.0277,0.23483 -0.14892,0.76024 -0.24244,1.05189c-0.0464,0.1444 -0.84745,2.32896 -1.78016,4.8545c-0.9327,2.5259 -1.69599,4.60287 -1.69599,4.61574s1.7111,0.02395 3.8024,0.02395s3.80275,-0.00429 3.80275,-0.00929l0,-0.00001zm-13.5046,8.41656c0.00647,-0.01894 1.89131,-4.93885 4.18835,-10.93316l4.17648,-10.89885l2.68373,0l0.11151,0.28379c0.34028,0.86675 8.36124,21.55929 8.36124,21.57037c0,0.00679 -0.64243,0.01251 -1.42801,0.01251l-1.42729,-0.00036l-1.15608,-3.05845l-1.15608,-3.0581l-4.65489,0l-4.65453,0l-0.04029,0.10365c-0.0223,0.05719 -0.51617,1.4329 -1.09781,3.0581l-1.0568,2.95444l-1.43089,0.00036c-1.13234,0.00036 -1.42801,-0.00679 -1.41866,-0.03431l0.00002,0.00001zm75.2893,-9.48417c0,-1.25491 -0.532,-2.64885 -1.28557,-3.36691c-0.53739,-0.51254 -1.18737,-0.82564 -1.95965,-0.94466c-0.36546,-0.05612 -1.13593,-0.03431 -1.52117,0.04325c-0.81436,0.1637 -1.48844,0.51933 -2.07547,1.09621c-0.61869,0.60726 -1.08234,1.34498 -1.37406,2.18492c-0.10503,0.30238 -0.22733,0.79848 -0.26546,1.07441l-0.01834,0.13117l8.49973,0l0,-0.21838l-0.00001,-0.00001zm-4.83078,9.87519c-1.01112,-0.07577 -2.07619,-0.4214 -2.94667,-0.95646c-1.83483,-1.12766 -2.92041,-2.98625 -3.23838,-5.54468c-0.11007,-0.88498 -0.12338,-2.07412 -0.03129,-2.82649c0.20503,-1.68059 0.86976,-3.33045 1.81613,-4.50851c0.2428,-0.30202 0.79314,-0.84888 1.09709,-1.09013c0.82048,-0.65086 1.78016,-1.10622 2.79955,-1.32782c0.59351,-0.12903 1.63952,-0.18943 2.27043,-0.13153c1.58448,0.14583 3.03695,0.88748 4.02397,2.0541c1.00321,1.18592 1.55427,2.84257 1.62477,4.88237c0.01115,0.31989 0.01367,0.88033 0.00576,1.24597l-0.01403,0.66409l-5.55018,0.00715l-5.55018,0.00679l0,0.24626c0,0.7488 0.18309,1.60232 0.50034,2.32824c0.27301,0.6262 0.7435,1.30995 1.12838,1.64092c0.79026,0.67839 1.75642,1.08442 2.81394,1.18235c0.39243,0.03574 1.39204,-0.00214 1.83879,-0.07041c1.27514,-0.19444 2.48733,-0.69161 3.46643,-1.42075c0.1151,-0.08578 0.22481,-0.1662 0.2446,-0.17835c0.02842,-0.01787 0.03561,0.20659 0.03453,1.14875l-0.00072,1.17091l-0.26258,0.1612c-1.10716,0.68053 -2.37582,1.1173 -3.71894,1.281c-0.40107,0.04897 -1.87224,0.07041 -2.35172,0.03503l-0.00002,0zm-29.08395,0.01251c-2.86573,-0.18264 -4.53223,-1.80391 -4.97358,-4.83877c-0.11762,-0.80706 -0.11798,-0.82779 -0.12985,-6.06901l-0.01187,-5.07217l2.53625,0l0.00935,4.90632c0.00935,4.42166 0.01511,4.94028 0.05755,5.25123c0.17302,1.26241 0.51617,2.11129 1.10176,2.72069c0.46869,0.48788 1.01687,0.7731 1.77584,0.92465c0.35826,0.07148 1.37693,0.07148 1.70318,0.00036c0.76976,-0.16835 1.38629,-0.5011 1.93015,-1.04153c0.62012,-0.61584 1.07874,-1.48973 1.30068,-2.47764l0.07482,-0.33312l0.00863,-4.94778l0.00827,-4.94778l2.58948,0l0,15.55605l-1.28161,0l-1.28089,0l0,-1.23418c0,-0.83851 -0.00971,-1.23132 -0.02914,-1.22453c-0.01583,0.00536 -0.08165,0.10544 -0.1464,0.22232c-0.44135,0.80027 -1.17694,1.53191 -1.98303,1.97261c-0.96652,0.52863 -1.93555,0.71663 -3.25961,0.63228l0.00002,0zm-72.1894,1.69275c6.2739,-1.10121 11.45575,-2.01228 11.5151,-2.02479l0.10827,-0.02287l-5.92319,-7.00081c-3.25781,-3.85014 -5.92319,-7.01582 -5.92319,-7.03405c0,-0.03431 6.11599,-16.77056 6.15052,-16.8299c0.01151,-0.02002 4.17397,7.12055 10.0896,17.30884c5.53867,9.53886 10.10507,17.4032 10.14715,17.47683l0.07734,0.13403l-18.82457,-0.0025l-18.82421,-0.0025l11.40719,-2.00227l-0.00001,-0.00001z" fill="#1c87c8" fill-rule="nonzero" stroke-width="0" filter="url(#_blur)" stroke="null"/>
  <g stroke="null">
   <g stroke="null" fill-rule="evenodd" fill="none">
    <g stroke="null" fill="#B52E31">
     <path stroke="null" d="m47.50267,34.26701l0,-17.59635l2.10886,0l10.0236,14.16088l0,-14.16088l2.00472,0l0,17.59635l-2.10886,0l-10.0236,-14.30053l0,14.30053l-2.00472,0zm30.46133,-0.69827c-1.3278,0.53068 -2.75974,0.80999 -4.26979,0.80999c-5.93605,0 -8.90408,-3.04445 -8.90408,-9.16128c0,-5.78166 2.86389,-8.68645 8.59166,-8.68645c1.64023,0 3.17631,0.25138 4.58222,0.7262l0,1.95515c-1.40591,-0.58655 -2.86389,-0.86585 -4.3479,-0.86585c-4.47808,0 -6.71711,2.29032 -6.71711,6.8151c0,4.88788 2.213,7.31785 6.61297,7.31785c0.70295,0 1.48401,-0.11172 2.34318,-0.30724l0,-5.89338l2.10886,0l0,7.28992zm3.38459,-6.0889l0,-10.80919l2.10886,0l0,10.80919c0,3.37962 1.56212,5.08339 4.71239,5.08339c3.12424,0 4.71239,-1.70377 4.71239,-5.08339l0,-10.80919l2.10886,0l0,10.80919c0,4.60857 -2.26507,6.92682 -6.82125,6.92682s-6.82125,-2.31825 -6.82125,-6.92682zm19.52649,-10.80919l0,15.75293l8.59166,0l0,1.84343l-10.70052,0l0,-17.59635l2.10886,0zm11.63779,17.59635l-2.213,0l8.14906,-19.9146l8.14906,19.9146l-2.34318,0l-2.10886,-5.53028l-5.41535,0l0.57278,-1.84343l4.13962,0l-3.07217,-7.96026l-5.85795,15.33397zm16.35018,0l0,-17.59635l7.0035,0c3.12424,0 4.68636,1.39654 4.68636,4.21754c0,2.29032 -1.53608,3.99409 -4.58222,5.08339l5.62363,8.29542l-2.78578,0l-5.20706,-7.90439l0,-1.48033c3.12424,-0.53068 4.71239,-1.8155 4.71239,-3.88237c0,-1.61998 -0.85917,-2.42997 -2.60353,-2.42997l-4.68636,0l0,15.69707l-2.16093,0z"/>
    </g>
    <path stroke="null" fill="#E23237" d="m8.29348,11.97829l16.79278,-6.42407l17.23538,6.31234l-2.78578,23.82491l-14.4496,8.57473l-14.21529,-8.46301l-2.5775,-23.82491z"/>
    <path stroke="null" fill="#B52E31" d="m42.32164,11.86657l-17.23538,-6.31234l0,38.71198l14.4496,-8.57473l2.78578,-23.82491z"/>
    <path stroke="null" fill="#FFF" d="m25.1123,10.079l-10.4662,24.97007l3.9053,-0.08379l2.10886,-5.64201l9.34668,0l2.29111,5.69787l3.72305,0.08379l-10.9088,-25.02593zm0.02604,8.01612l3.5408,7.93232l-6.63901,0l3.0982,-7.93232z"/>
   </g>
  </g>
 </g>
 <defs>
  <filter id="_blur">
   <feGaussianBlur in="SourceGraphic" stdDeviation="0"/>
  </filter>
 </defs>
</svg>