<svg width="150" height="50" xmlns="http://www.w3.org/2000/svg">
 <g>
  <title>Layer 1</title>
  <path id="svg_1" d="m36.86005,89.53673c0,-0.01001 2.79092,-4.82412 6.20196,-10.69833l6.20232,-10.68046l7.22782,-6.0272c3.97541,-3.31473 7.23862,-6.03113 7.25156,-6.03613c0.01331,-0.005 -0.03921,0.12581 -0.11618,0.29058s-3.60888,7.69206 -7.84831,16.72767l-7.70838,16.42744l-5.60557,0.00715c-3.08299,0.00393 -5.60521,-0.00107 -5.60521,-0.01072l-0.00001,0zm107.82206,0.05469c-0.01007,-0.01001 -0.0187,-3.52274 -0.0187,-7.80572l0,-7.78714l2.53481,0l0,1.60518c0,0.88319 0.01079,1.60554 0.0241,1.60554s0.07482,-0.14476 0.13705,-0.32132c0.28488,-0.80956 0.77911,-1.56586 1.41614,-2.16669c0.57336,-0.54185 1.22874,-0.86567 2.00245,-0.9897c0.21726,-0.03467 0.40071,-0.04146 0.83558,-0.03002c0.54567,0.0143 0.83091,0.05361 1.16291,0.16155l0.10467,0.03396l0,2.61454l-0.29963,-0.14904c-0.52912,-0.26306 -1.05069,-0.36707 -1.67836,-0.33455c-0.40826,0.02073 -0.67624,0.07291 -1.00249,0.19479c-0.67192,0.25055 -1.21687,0.69233 -1.59779,1.29637c-0.5507,0.87354 -0.94385,1.99656 -1.06004,3.02843c-0.02086,0.1855 -0.03309,1.69418 -0.03777,4.66792l-0.00719,4.39449l-1.24888,0c-0.68667,0 -1.25679,-0.00858 -1.26687,-0.01859l0.00001,0zm-34.03092,-0.37994l0,-0.39852l4.63726,-6.33458l4.63762,-6.33493l-4.19879,-0.01358l-4.19879,-0.01394l-0.00755,-1.05868l-0.00719,-1.05868l12.14637,0l0,0.7152l-4.63834,6.36889c-2.551,3.50344 -4.63834,6.37532 -4.63834,6.38283c0,0.00679 2.06252,0.01287 4.58259,0.01287l4.58259,0l0,2.13166l-6.44907,0l-6.44835,0l0,-0.39852l-0.00001,-0.00002zm-6.88035,-8.05306c0,-0.00429 -0.77839,-2.10056 -1.72908,-4.65684c-1.77872,-4.78301 -1.87836,-5.07074 -2.019,-5.83848c-0.06583,-0.35992 -0.09928,-0.37029 -0.13848,-0.04146c-0.0277,0.23483 -0.14892,0.76024 -0.24244,1.05189c-0.0464,0.1444 -0.84745,2.32896 -1.78016,4.8545c-0.9327,2.5259 -1.69599,4.60287 -1.69599,4.61574s1.7111,0.02395 3.8024,0.02395s3.80275,-0.00429 3.80275,-0.00929l0,-0.00001zm-13.5046,8.41656c0.00647,-0.01894 1.89131,-4.93885 4.18835,-10.93316l4.17648,-10.89885l2.68373,0l0.11151,0.28379c0.34028,0.86675 8.36124,21.55929 8.36124,21.57037c0,0.00679 -0.64243,0.01251 -1.42801,0.01251l-1.42729,-0.00036l-1.15608,-3.05845l-1.15608,-3.0581l-4.65489,0l-4.65453,0l-0.04029,0.10365c-0.0223,0.05719 -0.51617,1.4329 -1.09781,3.0581l-1.0568,2.95444l-1.43089,0.00036c-1.13234,0.00036 -1.42801,-0.00679 -1.41866,-0.03431l0.00002,0.00001zm75.2893,-9.48417c0,-1.25491 -0.532,-2.64885 -1.28557,-3.36691c-0.53739,-0.51254 -1.18737,-0.82564 -1.95965,-0.94466c-0.36546,-0.05612 -1.13593,-0.03431 -1.52117,0.04325c-0.81436,0.1637 -1.48844,0.51933 -2.07547,1.09621c-0.61869,0.60726 -1.08234,1.34498 -1.37406,2.18492c-0.10503,0.30238 -0.22733,0.79848 -0.26546,1.07441l-0.01834,0.13117l8.49973,0l0,-0.21838l-0.00001,-0.00001zm-4.83078,9.87519c-1.01112,-0.07577 -2.07619,-0.4214 -2.94667,-0.95646c-1.83483,-1.12766 -2.92041,-2.98625 -3.23838,-5.54468c-0.11007,-0.88498 -0.12338,-2.07412 -0.03129,-2.82649c0.20503,-1.68059 0.86976,-3.33045 1.81613,-4.50851c0.2428,-0.30202 0.79314,-0.84888 1.09709,-1.09013c0.82048,-0.65086 1.78016,-1.10622 2.79955,-1.32782c0.59351,-0.12903 1.63952,-0.18943 2.27043,-0.13153c1.58448,0.14583 3.03695,0.88748 4.02397,2.0541c1.00321,1.18592 1.55427,2.84257 1.62477,4.88237c0.01115,0.31989 0.01367,0.88033 0.00576,1.24597l-0.01403,0.66409l-5.55018,0.00715l-5.55018,0.00679l0,0.24626c0,0.7488 0.18309,1.60232 0.50034,2.32824c0.27301,0.6262 0.7435,1.30995 1.12838,1.64092c0.79026,0.67839 1.75642,1.08442 2.81394,1.18235c0.39243,0.03574 1.39204,-0.00214 1.83879,-0.07041c1.27514,-0.19444 2.48733,-0.69161 3.46643,-1.42075c0.1151,-0.08578 0.22481,-0.1662 0.2446,-0.17835c0.02842,-0.01787 0.03561,0.20659 0.03453,1.14875l-0.00072,1.17091l-0.26258,0.1612c-1.10716,0.68053 -2.37582,1.1173 -3.71894,1.281c-0.40107,0.04897 -1.87224,0.07041 -2.35172,0.03503l-0.00002,0zm-29.08395,0.01251c-2.86573,-0.18264 -4.53223,-1.80391 -4.97358,-4.83877c-0.11762,-0.80706 -0.11798,-0.82779 -0.12985,-6.06901l-0.01187,-5.07217l2.53625,0l0.00935,4.90632c0.00935,4.42166 0.01511,4.94028 0.05755,5.25123c0.17302,1.26241 0.51617,2.11129 1.10176,2.72069c0.46869,0.48788 1.01687,0.7731 1.77584,0.92465c0.35826,0.07148 1.37693,0.07148 1.70318,0.00036c0.76976,-0.16835 1.38629,-0.5011 1.93015,-1.04153c0.62012,-0.61584 1.07874,-1.48973 1.30068,-2.47764l0.07482,-0.33312l0.00863,-4.94778l0.00827,-4.94778l2.58948,0l0,15.55605l-1.28161,0l-1.28089,0l0,-1.23418c0,-0.83851 -0.00971,-1.23132 -0.02914,-1.22453c-0.01583,0.00536 -0.08165,0.10544 -0.1464,0.22232c-0.44135,0.80027 -1.17694,1.53191 -1.98303,1.97261c-0.96652,0.52863 -1.93555,0.71663 -3.25961,0.63228l0.00002,0zm-72.1894,1.69275c6.2739,-1.10121 11.45575,-2.01228 11.5151,-2.02479l0.10827,-0.02287l-5.92319,-7.00081c-3.25781,-3.85014 -5.92319,-7.01582 -5.92319,-7.03405c0,-0.03431 6.11599,-16.77056 6.15052,-16.8299c0.01151,-0.02002 4.17397,7.12055 10.0896,17.30884c5.53867,9.53886 10.10507,17.4032 10.14715,17.47683l0.07734,0.13403l-18.82457,-0.0025l-18.82421,-0.0025l11.40719,-2.00227l-0.00001,-0.00001z" fill="#1c87c8" fill-rule="nonzero" stroke-width="0" filter="url(#_blur)" stroke="null"/>
  <g stroke="null" id="svg_2">
   <g stroke="null" fill-rule="evenodd" fill="none" id="svg_3">
    <g stroke="null" fill="#B52E31" id="svg_4">
     <path stroke="null" d="m52.84248,83.2962l0,-17.59635l2.10886,0l10.0236,14.16088l0,-14.16088l2.00472,0l0,17.59635l-2.10886,0l-10.0236,-14.30053l0,14.30053l-2.00472,0zm30.46133,-0.69827c-1.3278,0.53068 -2.75974,0.80999 -4.26979,0.80999c-5.93605,0 -8.90408,-3.04445 -8.90408,-9.16128c0,-5.78166 2.86389,-8.68645 8.59166,-8.68645c1.64023,0 3.17631,0.25138 4.58222,0.7262l0,1.95515c-1.40591,-0.58655 -2.86389,-0.86585 -4.3479,-0.86585c-4.47808,0 -6.71711,2.29032 -6.71711,6.8151c0,4.88788 2.213,7.31785 6.61297,7.31785c0.70295,0 1.48401,-0.11172 2.34318,-0.30724l0,-5.89338l2.10886,0l0,7.28992l-0.00001,-0.00001zm3.38459,-6.0889l0,-10.80919l2.10886,0l0,10.80919c0,3.37962 1.56212,5.08339 4.71239,5.08339c3.12424,0 4.71239,-1.70377 4.71239,-5.08339l0,-10.80919l2.10886,0l0,10.80919c0,4.60857 -2.26507,6.92682 -6.82125,6.92682s-6.82125,-2.31825 -6.82125,-6.92682zm19.52649,-10.80919l0,15.75293l8.59166,0l0,1.84343l-10.70052,0l0,-17.59635l2.10886,0l0,-0.00001zm11.63779,17.59635l-2.213,0l8.14906,-19.9146l8.14906,19.9146l-2.34318,0l-2.10886,-5.53028l-5.41535,0l0.57278,-1.84343l4.13962,0l-3.07217,-7.96026l-5.85795,15.33397l-0.00001,0zm16.35018,0l0,-17.59635l7.0035,0c3.12424,0 4.68636,1.39654 4.68636,4.21754c0,2.29032 -1.53608,3.99409 -4.58222,5.08339l5.62363,8.29542l-2.78578,0l-5.20706,-7.90439l0,-1.48033c3.12424,-0.53068 4.71239,-1.8155 4.71239,-3.88237c0,-1.61998 -0.85917,-2.42997 -2.60353,-2.42997l-4.68636,0l0,15.69707l-2.16093,0l0,-0.00001z" id="svg_5"/>
    </g>
    <path stroke="null" fill="#E23237" d="m13.63329,61.00748l16.79278,-6.42407l17.23538,6.31234l-2.78578,23.82491l-14.4496,8.57473l-14.21529,-8.46301l-2.5775,-23.82491l0.00001,0.00001z" id="svg_6"/>
    <path stroke="null" fill="#B52E31" d="m47.66145,60.89576l-17.23538,-6.31234l0,38.71198l14.4496,-8.57473l2.78578,-23.82491z" id="svg_7"/>
    <path stroke="null" fill="#FFF" d="m30.45211,59.10819l-10.4662,24.97007l3.9053,-0.08379l2.10886,-5.64201l9.34668,0l2.29111,5.69787l3.72305,0.08379l-10.9088,-25.02593zm0.02604,8.01612l3.5408,7.93232l-6.63901,0l3.0982,-7.93232l0.00001,0z" id="svg_8"/>
   </g>
  </g>
  <g stroke="null" id="svg_9">
   <g stroke="null" fill="#621ee5" id="svg_10">
    <path d="m12.93858,35.81895c-0.19906,-0.21032 -0.44166,-0.37734 -0.70915,-0.49487s-0.55363,-0.1732 -0.846,-0.1732c-0.29237,-0.00618 -0.57852,0.05567 -0.846,0.16702c-0.26749,0.11753 -0.51009,0.28455 -0.70915,0.49487c-0.20528,0.20414 -0.36702,0.44539 -0.47276,0.71138c-0.10575,0.27218 -0.16173,0.55673 -0.16173,0.84128c-0.00622,0.29074 0.04976,0.57529 0.16173,0.84128s0.2737,0.50724 0.47899,0.71138a2.07706,2.06548 0 0 0 1.55515,0.64952a2.14984,2.13785 0 0 0 1.55515,-0.64952c0.2115,-0.19795 0.37324,-0.4392 0.48521,-0.7052s0.16796,-0.55055 0.16796,-0.84128s-0.05599,-0.57529 -0.16796,-0.84128c-0.11819,-0.27218 -0.27993,-0.51343 -0.49143,-0.71138l-0.00001,0zm26.03321,-5.02296c-0.0311,1.38565 0.03733,2.77748 0.19906,4.15694l-0.07464,0c-0.17418,-0.34022 -0.55985,-0.97118 -1.15081,-1.89289l-14.18296,-22.13938l-4.30465,0l0,28.26344l3.30936,0l0,-20.43207c0.03733,-1.29285 -0.01866,-2.58571 -0.15551,-3.87857l0.12442,0c0.23639,0.61859 0.54119,1.21244 0.90199,1.76917l14.56864,22.54147l4.0745,0l0,-28.26344l-3.30936,0l0,19.87534l-0.00003,0l-0.00001,-0.00001zm25.74706,5.28277l-11.69473,0l0,-9.7923l10.23288,0l0,-2.98161l-10.23288,0l0,-9.39021l10.97936,0l0,-2.99398l-14.36958,0l0,28.26344l15.06629,0l0.01866,-3.10533l0.00001,0l-0.00001,-0.00001zm2.53178,-25.15811l0,2.99398l8.14898,0l0,25.26945l3.30936,0l0,-25.26945l8.24229,0l0,-2.99398l-19.70064,0l0.00001,0z" id="svg_11" stroke="null"/>
    <g id="svg_12">
     <g id="svg_13" fill="#621ee5">
      <path id="svg_14" d="m65.35564,3.24482zm30.58615,14.32867a8.45731,8.17385 0 0 0 -2.96511,1.92949c-0.85921,0.8874 -1.5331,1.92949 -1.97113,3.07741s-0.63177,2.36097 -0.58123,3.57403c-0.08424,2.247 0.72443,4.44514 2.27438,6.12225c0.77497,0.78971 1.71842,1.4003 2.76295,1.80737s2.16487,0.58617 3.28521,0.53733c1.68472,0.05699 3.36102,-0.28495 4.8857,-1.00138l0.01685,-1.89692c-1.39832,0.78971 -2.99038,1.18049 -4.60772,1.13978c-0.86763,0.03257 -1.73527,-0.11398 -2.53551,-0.43149s-1.52467,-0.80599 -2.11433,-1.42473a7.34539,7.0992 0 0 1 -1.76896,-4.99875c-0.10108,-1.92949 0.58123,-3.81826 1.89531,-5.26741c0.62335,-0.66759 1.3899,-1.18863 2.24068,-1.54684a6.46934,6.25251 0 0 1 2.70398,-0.49662c1.47413,-0.02442 2.923,0.32565 4.21181,1.01766l0,-2.04346a10.30208,9.9568 0 0 0 -4.21181,-0.71643c-1.20458,-0.01628 -2.40915,0.18725 -3.52107,0.61874l0,-0.00003zm21.00008,5.82916a5.65983,5.47013 0 0 0 -4.39713,-1.69339c-0.86763,-0.04071 -1.72684,0.0977 -2.53551,0.39892s-1.54152,0.75714 -2.16487,1.33517c-0.6065,0.6513 -1.0698,1.40844 -1.37305,2.23885s-0.4296,1.70153 -0.37064,2.58079c-0.08424,1.66896 0.51384,3.30536 1.65945,4.55098c0.57281,0.59431 1.26354,1.06651 2.03852,1.38402c0.77497,0.30937 1.60891,0.46405 2.44285,0.43149c0.85079,0.02442 1.70157,-0.13026 2.49339,-0.44777s1.4994,-0.79785 2.08063,-1.40844a6.78944,6.56188 0 0 0 1.70157,-4.68938c0.10108,-1.70967 -0.4633,-3.37864 -1.57522,-4.68124l0.00001,0zm-1.54152,8.3611a3.70134,3.57728 0 0 1 -3.00723,1.22933c-0.58123,0.02442 -1.15404,-0.08141 -1.68472,-0.29309c-0.53069,-0.21981 -1.00241,-0.54547 -1.3899,-0.96881a5.16031,4.98735 0 0 1 -1.13719,-3.42748c-0.07581,-1.27818 0.32852,-2.54008 1.13719,-3.5496c0.37906,-0.42335 0.85079,-0.75714 1.38147,-0.9851c0.53069,-0.21981 1.11192,-0.32565 1.68472,-0.30123c0.57281,-0.03257 1.13719,0.07327 1.65945,0.29309s0.98556,0.55361 1.3562,0.97695a5.61687,5.42861 0 0 1 1.05295,3.53332c0.08424,1.23748 -0.2864,2.48309 -1.05295,3.49261l0.00001,0.00001zm9.76297,-9.15895c-0.63177,0.54547 -1.09507,1.25376 -1.32251,2.04346l0,-2.55636l-2.1059,0l0,12.2445l2.1059,0l0,-6.24437c-0.06739,-1.13164 0.23586,-2.26328 0.85921,-3.22395c0.22744,-0.35008 0.53069,-0.64316 0.90133,-0.84669s0.7834,-0.32565 1.20458,-0.33379c0.53911,-0.04071 1.07822,0.0977 1.5331,0.39078l0,-2.01904c-0.38749,-0.12212 -0.79182,-0.17911 -1.19615,-0.16283c-0.72443,-0.00814 -1.42359,0.24424 -1.97955,0.70829l-0.00001,0zm15.49946,5.05574c0.10108,-1.55499 -0.37906,-3.08555 -1.34778,-4.32302c-0.48015,-0.52104 -1.0698,-0.93625 -1.73527,-1.20491s-1.38147,-0.39078 -2.09748,-0.35008c-0.79182,-0.02442 -1.58364,0.13026 -2.31649,0.43963c-0.72443,0.30937 -1.37305,0.77342 -1.89531,1.3596a6.92169,6.6897 0 0 0 -1.65945,4.64868c-0.10951,1.69339 0.43803,3.37049 1.5331,4.68938c0.53069,0.56175 1.18773,1.00138 1.91216,1.29447s1.51625,0.41521 2.29965,0.38264c1.55837,0.07327 3.09989,-0.33379 4.39713,-1.1642l0,-1.83993a6.32277,6.11085 0 0 1 -3.91698,1.36774c-0.54754,0.03257 -1.10349,-0.04885 -1.61733,-0.24424s-0.98556,-0.48034 -1.37305,-0.86298a4.70038,4.54284 0 0 1 -1.0698,-3.14254l8.90376,0l-0.01685,-1.05023l-0.00001,-0.00001zm-8.90376,-0.56989c0.10951,-0.96881 0.54754,-1.88064 1.23827,-2.58893a3.25152,3.14254 0 0 1 2.426,-1.00138c0.43803,-0.02442 0.86763,0.04885 1.27197,0.21167s0.75813,0.40706 1.04453,0.72457c0.58965,0.75714 0.88448,1.68525 0.84236,2.62964l-6.82313,0.02442l0,0.00001z" stroke="null"/>
     </g>
    </g>
   </g>
  </g>
 </g>
 <defs>
  <filter id="_blur">
   <feGaussianBlur in="SourceGraphic" stdDeviation="0"/>
  </filter>
 </defs>
</svg>