<svg width="150" height="50" xmlns="http://www.w3.org/2000/svg">
 <g>
  <title>Layer 1</title>
  <path id="svg_1" d="m36.86005,89.53673c0,-0.01001 2.79092,-4.82412 6.20196,-10.69833l6.20232,-10.68046l7.22782,-6.0272c3.97541,-3.31473 7.23862,-6.03113 7.25156,-6.03613c0.01331,-0.005 -0.03921,0.12581 -0.11618,0.29058s-3.60888,7.69206 -7.84831,16.72767l-7.70838,16.42744l-5.60557,0.00715c-3.08299,0.00393 -5.60521,-0.00107 -5.60521,-0.01072l-0.00001,0zm107.82206,0.05469c-0.01007,-0.01001 -0.0187,-3.52274 -0.0187,-7.80572l0,-7.78714l2.53481,0l0,1.60518c0,0.88319 0.01079,1.60554 0.0241,1.60554s0.07482,-0.14476 0.13705,-0.32132c0.28488,-0.80956 0.77911,-1.56586 1.41614,-2.16669c0.57336,-0.54185 1.22874,-0.86567 2.00245,-0.9897c0.21726,-0.03467 0.40071,-0.04146 0.83558,-0.03002c0.54567,0.0143 0.83091,0.05361 1.16291,0.16155l0.10467,0.03396l0,2.61454l-0.29963,-0.14904c-0.52912,-0.26306 -1.05069,-0.36707 -1.67836,-0.33455c-0.40826,0.02073 -0.67624,0.07291 -1.00249,0.19479c-0.67192,0.25055 -1.21687,0.69233 -1.59779,1.29637c-0.5507,0.87354 -0.94385,1.99656 -1.06004,3.02843c-0.02086,0.1855 -0.03309,1.69418 -0.03777,4.66792l-0.00719,4.39449l-1.24888,0c-0.68667,0 -1.25679,-0.00858 -1.26687,-0.01859l0.00001,0zm-34.03092,-0.37994l0,-0.39852l4.63726,-6.33458l4.63762,-6.33493l-4.19879,-0.01358l-4.19879,-0.01394l-0.00755,-1.05868l-0.00719,-1.05868l12.14637,0l0,0.7152l-4.63834,6.36889c-2.551,3.50344 -4.63834,6.37532 -4.63834,6.38283c0,0.00679 2.06252,0.01287 4.58259,0.01287l4.58259,0l0,2.13166l-6.44907,0l-6.44835,0l0,-0.39852l-0.00001,-0.00002zm-6.88035,-8.05306c0,-0.00429 -0.77839,-2.10056 -1.72908,-4.65684c-1.77872,-4.78301 -1.87836,-5.07074 -2.019,-5.83848c-0.06583,-0.35992 -0.09928,-0.37029 -0.13848,-0.04146c-0.0277,0.23483 -0.14892,0.76024 -0.24244,1.05189c-0.0464,0.1444 -0.84745,2.32896 -1.78016,4.8545c-0.9327,2.5259 -1.69599,4.60287 -1.69599,4.61574s1.7111,0.02395 3.8024,0.02395s3.80275,-0.00429 3.80275,-0.00929l0,-0.00001zm-13.5046,8.41656c0.00647,-0.01894 1.89131,-4.93885 4.18835,-10.93316l4.17648,-10.89885l2.68373,0l0.11151,0.28379c0.34028,0.86675 8.36124,21.55929 8.36124,21.57037c0,0.00679 -0.64243,0.01251 -1.42801,0.01251l-1.42729,-0.00036l-1.15608,-3.05845l-1.15608,-3.0581l-4.65489,0l-4.65453,0l-0.04029,0.10365c-0.0223,0.05719 -0.51617,1.4329 -1.09781,3.0581l-1.0568,2.95444l-1.43089,0.00036c-1.13234,0.00036 -1.42801,-0.00679 -1.41866,-0.03431l0.00002,0.00001zm75.2893,-9.48417c0,-1.25491 -0.532,-2.64885 -1.28557,-3.36691c-0.53739,-0.51254 -1.18737,-0.82564 -1.95965,-0.94466c-0.36546,-0.05612 -1.13593,-0.03431 -1.52117,0.04325c-0.81436,0.1637 -1.48844,0.51933 -2.07547,1.09621c-0.61869,0.60726 -1.08234,1.34498 -1.37406,2.18492c-0.10503,0.30238 -0.22733,0.79848 -0.26546,1.07441l-0.01834,0.13117l8.49973,0l0,-0.21838l-0.00001,-0.00001zm-4.83078,9.87519c-1.01112,-0.07577 -2.07619,-0.4214 -2.94667,-0.95646c-1.83483,-1.12766 -2.92041,-2.98625 -3.23838,-5.54468c-0.11007,-0.88498 -0.12338,-2.07412 -0.03129,-2.82649c0.20503,-1.68059 0.86976,-3.33045 1.81613,-4.50851c0.2428,-0.30202 0.79314,-0.84888 1.09709,-1.09013c0.82048,-0.65086 1.78016,-1.10622 2.79955,-1.32782c0.59351,-0.12903 1.63952,-0.18943 2.27043,-0.13153c1.58448,0.14583 3.03695,0.88748 4.02397,2.0541c1.00321,1.18592 1.55427,2.84257 1.62477,4.88237c0.01115,0.31989 0.01367,0.88033 0.00576,1.24597l-0.01403,0.66409l-5.55018,0.00715l-5.55018,0.00679l0,0.24626c0,0.7488 0.18309,1.60232 0.50034,2.32824c0.27301,0.6262 0.7435,1.30995 1.12838,1.64092c0.79026,0.67839 1.75642,1.08442 2.81394,1.18235c0.39243,0.03574 1.39204,-0.00214 1.83879,-0.07041c1.27514,-0.19444 2.48733,-0.69161 3.46643,-1.42075c0.1151,-0.08578 0.22481,-0.1662 0.2446,-0.17835c0.02842,-0.01787 0.03561,0.20659 0.03453,1.14875l-0.00072,1.17091l-0.26258,0.1612c-1.10716,0.68053 -2.37582,1.1173 -3.71894,1.281c-0.40107,0.04897 -1.87224,0.07041 -2.35172,0.03503l-0.00002,0zm-29.08395,0.01251c-2.86573,-0.18264 -4.53223,-1.80391 -4.97358,-4.83877c-0.11762,-0.80706 -0.11798,-0.82779 -0.12985,-6.06901l-0.01187,-5.07217l2.53625,0l0.00935,4.90632c0.00935,4.42166 0.01511,4.94028 0.05755,5.25123c0.17302,1.26241 0.51617,2.11129 1.10176,2.72069c0.46869,0.48788 1.01687,0.7731 1.77584,0.92465c0.35826,0.07148 1.37693,0.07148 1.70318,0.00036c0.76976,-0.16835 1.38629,-0.5011 1.93015,-1.04153c0.62012,-0.61584 1.07874,-1.48973 1.30068,-2.47764l0.07482,-0.33312l0.00863,-4.94778l0.00827,-4.94778l2.58948,0l0,15.55605l-1.28161,0l-1.28089,0l0,-1.23418c0,-0.83851 -0.00971,-1.23132 -0.02914,-1.22453c-0.01583,0.00536 -0.08165,0.10544 -0.1464,0.22232c-0.44135,0.80027 -1.17694,1.53191 -1.98303,1.97261c-0.96652,0.52863 -1.93555,0.71663 -3.25961,0.63228l0.00002,0zm-72.1894,1.69275c6.2739,-1.10121 11.45575,-2.01228 11.5151,-2.02479l0.10827,-0.02287l-5.92319,-7.00081c-3.25781,-3.85014 -5.92319,-7.01582 -5.92319,-7.03405c0,-0.03431 6.11599,-16.77056 6.15052,-16.8299c0.01151,-0.02002 4.17397,7.12055 10.0896,17.30884c5.53867,9.53886 10.10507,17.4032 10.14715,17.47683l0.07734,0.13403l-18.82457,-0.0025l-18.82421,-0.0025l11.40719,-2.00227l-0.00001,-0.00001z" fill="#1c87c8" fill-rule="nonzero" stroke-width="0" filter="url(#_blur)" stroke="null"/>
  <g stroke="null" id="svg_2">
   <g stroke="null" fill-rule="evenodd" fill="none" id="svg_3">
    <g stroke="null" fill="#B52E31" id="svg_4">
     <path stroke="null" d="m52.84248,83.2962l0,-17.59635l2.10886,0l10.0236,14.16088l0,-14.16088l2.00472,0l0,17.59635l-2.10886,0l-10.0236,-14.30053l0,14.30053l-2.00472,0zm30.46133,-0.69827c-1.3278,0.53068 -2.75974,0.80999 -4.26979,0.80999c-5.93605,0 -8.90408,-3.04445 -8.90408,-9.16128c0,-5.78166 2.86389,-8.68645 8.59166,-8.68645c1.64023,0 3.17631,0.25138 4.58222,0.7262l0,1.95515c-1.40591,-0.58655 -2.86389,-0.86585 -4.3479,-0.86585c-4.47808,0 -6.71711,2.29032 -6.71711,6.8151c0,4.88788 2.213,7.31785 6.61297,7.31785c0.70295,0 1.48401,-0.11172 2.34318,-0.30724l0,-5.89338l2.10886,0l0,7.28992l-0.00001,-0.00001zm3.38459,-6.0889l0,-10.80919l2.10886,0l0,10.80919c0,3.37962 1.56212,5.08339 4.71239,5.08339c3.12424,0 4.71239,-1.70377 4.71239,-5.08339l0,-10.80919l2.10886,0l0,10.80919c0,4.60857 -2.26507,6.92682 -6.82125,6.92682s-6.82125,-2.31825 -6.82125,-6.92682zm19.52649,-10.80919l0,15.75293l8.59166,0l0,1.84343l-10.70052,0l0,-17.59635l2.10886,0l0,-0.00001zm11.63779,17.59635l-2.213,0l8.14906,-19.9146l8.14906,19.9146l-2.34318,0l-2.10886,-5.53028l-5.41535,0l0.57278,-1.84343l4.13962,0l-3.07217,-7.96026l-5.85795,15.33397l-0.00001,0zm16.35018,0l0,-17.59635l7.0035,0c3.12424,0 4.68636,1.39654 4.68636,4.21754c0,2.29032 -1.53608,3.99409 -4.58222,5.08339l5.62363,8.29542l-2.78578,0l-5.20706,-7.90439l0,-1.48033c3.12424,-0.53068 4.71239,-1.8155 4.71239,-3.88237c0,-1.61998 -0.85917,-2.42997 -2.60353,-2.42997l-4.68636,0l0,15.69707l-2.16093,0l0,-0.00001z" id="svg_5"/>
    </g>
    <path stroke="null" fill="#E23237" d="m13.63329,61.00748l16.79278,-6.42407l17.23538,6.31234l-2.78578,23.82491l-14.4496,8.57473l-14.21529,-8.46301l-2.5775,-23.82491l0.00001,0.00001z" id="svg_6"/>
    <path stroke="null" fill="#B52E31" d="m47.66145,60.89576l-17.23538,-6.31234l0,38.71198l14.4496,-8.57473l2.78578,-23.82491z" id="svg_7"/>
    <path stroke="null" fill="#FFF" d="m30.45211,59.10819l-10.4662,24.97007l3.9053,-0.08379l2.10886,-5.64201l9.34668,0l2.29111,5.69787l3.72305,0.08379l-10.9088,-25.02593zm0.02604,8.01612l3.5408,7.93232l-6.63901,0l3.0982,-7.93232l0.00001,0z" id="svg_8"/>
   </g>
  </g>
  <g stroke="null">
   <g stroke="null">
    <path stroke="null" fill="url(#svg_18)" d="m34.72176,23.04103l-6.84932,2.35049l-5.95896,2.76486l-1.66688,0.4626c-0.42479,0.42509 -0.86997,0.85375 -1.35083,1.28955c-0.52844,0.47867 -1.0195,0.91448 -1.39841,1.23061c-0.41969,0.34829 -1.03989,1.00199 -1.35593,1.41458c-0.47067,0.61977 -0.84448,1.27884 -1.0042,1.7843c-0.28546,0.91448 -0.14443,1.83967 0.4044,2.69342c0.70345,1.08773 2.10696,2.19867 3.74325,2.95419c0.83429,0.38579 2.2361,0.88233 3.29298,1.15917c1.75523,0.46795 5.15186,0.97342 7.01924,1.05022c0.37721,0.01607 0.88526,0.01607 0.90565,0c0.04078,-0.02679 0.33134,-0.60906 0.66777,-1.33242c1.14863,-2.4648 1.97782,-4.77778 2.4281,-6.75319c0.26847,-1.19668 0.48086,-2.79165 0.62189,-4.67955c0.03568,-0.52868 0.05097,-2.29691 0.02039,-2.89525c-0.04588,-0.97878 -0.12914,-1.77358 -0.25827,-2.55232c-0.02039,-0.11431 -0.02549,-0.2179 -0.01529,-0.22326c0.02039,-0.01607 0.08326,-0.03751 0.92604,-0.2947l-0.17162,-0.4233l0,0l0,0l0,0zm-1.56323,0.96449c0.06287,0 0.22769,1.66999 0.26847,2.72557c0.01019,0.22326 0.0051,0.36972 -0.0051,0.36972c-0.04078,0 -0.87507,-0.51618 -1.46977,-0.90912c-0.51824,-0.34293 -1.50206,-1.02879 -1.65668,-1.15917c-0.05267,-0.03751 -0.04588,-0.04287 0.37721,-0.19647c0.72044,-0.25362 2.4281,-0.83053 2.48587,-0.83053zm-3.49008,1.20739c0.04588,0 0.16482,0.07144 0.45028,0.25541c1.06707,0.70193 2.51646,1.55032 3.13665,1.83431c0.19201,0.08752 0.2124,0.05358 -0.22769,0.36972c-0.94303,0.67514 -2.11716,1.33778 -3.55635,2.00756c-0.25318,0.11967 -0.46557,0.21254 -0.47067,0.21254c-0.01019,0 0.02039,-0.13574 0.06287,-0.30006c0.34663,-1.35564 0.54373,-2.72557 0.55393,-3.8258c0.0051,-0.54476 0.0051,-0.54476 0.05097,-0.56083c-0.01019,0.00714 -0.0051,0.00714 0,0.00714zm-0.71875,0.28935c0.03058,0.03215 0.01019,1.25205 -0.03058,1.58426c-0.09345,0.79481 -0.23788,1.53425 -0.47577,2.36656c-0.05777,0.20183 -0.10875,0.36972 -0.11894,0.38044c-0.02039,0.02679 -0.73064,-0.70193 -0.96342,-0.98413c-0.4044,-0.48939 -0.71875,-0.97878 -0.95323,-1.45923c-0.11894,-0.24469 -0.30585,-0.72337 -0.29056,-0.73944c0.08326,-0.06073 2.81211,-1.16989 2.8325,-1.14845zm-3.38643,1.39851c0.0051,0 0.01019,0 0.01529,0.00536c0.01019,0.01072 0.04588,0.09823 0.07816,0.19647c0.16482,0.47331 0.53863,1.16989 0.85978,1.61641c0.35173,0.48939 0.8122,1.01271 1.19621,1.35564c0.12404,0.10895 0.23788,0.21254 0.25318,0.22862c0.03058,0.03215 0.04078,0.02679 -0.802,0.36436c-0.97872,0.39115 -2.04409,0.78409 -3.26749,1.19668c-0.29226,0.09823 -0.58281,0.19826 -0.87507,0.30006c-0.04588,0.01607 -0.03058,-0.01072 0.10365,-0.23398c0.6049,-0.99664 1.52755,-2.94883 2.04409,-4.33126c0.08836,-0.23934 0.17671,-0.47867 0.19201,-0.53404c0.02039,-0.0768 0.04588,-0.10359 0.11384,-0.1411c0.03738,-0.0125 0.07306,-0.02322 0.08836,-0.02322zm-1.03479,0.45188c0.01529,0.01072 -0.24808,0.59298 -0.50805,1.12702c-0.50295,1.02879 -1.05178,2.0415 -1.78582,3.27032c-0.12404,0.21254 -0.24298,0.40901 -0.25827,0.43045c-0.02549,0.03751 -0.03568,0.02679 -0.11894,-0.1411c-0.17671,-0.36436 -0.32114,-0.83232 -0.3993,-1.26276c-0.07816,-0.42509 -0.06287,-1.16453 0.02549,-1.62177c0.06797,-0.33757 0.06287,-0.33221 0.21749,-0.41437c0.66267,-0.35543 2.80702,-1.41101 2.8274,-1.38779zm8.93079,0.38044l0,0.22862c0,1.21275 -0.12404,2.87917 -0.30585,4.09192c-0.03058,0.21254 -0.05777,0.38579 -0.06287,0.39115c0,0 -0.14953,-0.04287 -0.32624,-0.09823c-0.77652,-0.25541 -1.621,-0.63049 -2.38222,-1.07165c-0.50295,-0.28756 -1.23189,-0.76266 -1.2115,-0.78409c0.0051,-0.00536 0.22259,-0.12503 0.47577,-0.26613c1.0144,-0.55547 1.98802,-1.15381 2.8325,-1.74679c0.31604,-0.22326 0.79181,-0.58226 0.89546,-0.6805l0.08496,-0.0643zm-12.83887,1.61105c0.02039,0 0.01529,0.04287 -0.01529,0.23934c-0.02039,0.1411 -0.04588,0.40187 -0.05607,0.58226c-0.04078,0.79481 0.08326,1.38243 0.45538,2.18796c0.10365,0.22326 0.18691,0.40901 0.18181,0.41437c-0.03568,0.03215 -3.46289,1.08773 -4.54016,1.39851c-0.32114,0.09288 -0.5998,0.17325 -0.62189,0.18039c-0.03568,0.01072 -0.04078,0.00536 -0.02549,-0.08752c0.11894,-0.80017 0.69836,-1.84503 1.50716,-2.72557c0.53863,-0.58762 0.96852,-0.93055 1.70256,-1.37171c0.52844,-0.31614 1.34064,-0.78945 1.40351,-0.81088c-0.0034,-0.00714 0.0034,-0.00714 0.0085,-0.00714zm8.07612,1.51817c0.0051,-0.00536 0.12914,0.06609 0.27866,0.15718c1.10785,0.67514 2.65069,1.30027 3.96584,1.62177l0.11894,0.02679l-0.16652,0.09823c-0.68816,0.40187 -2.95144,1.39315 -5.2657,2.30227c-0.33643,0.13038 -0.66777,0.26077 -0.73064,0.28756c-0.06287,0.02679 -0.11894,0.04287 -0.11894,0.03751c0,-0.00536 0.09345,-0.19647 0.2124,-0.43045c0.64738,-1.27348 1.29986,-2.8238 1.6312,-3.9026c0.04248,-0.10002 0.06797,-0.1929 0.07476,-0.19826l0,0zm-0.82409,0.2822c0.0051,0.00536 -0.03568,0.11967 -0.08836,0.25005c-0.45028,1.14845 -1.03989,2.4005 -1.79601,3.80436c-0.19201,0.359 -0.35173,0.64835 -0.35682,0.64835c-0.0051,0 -0.15972,-0.09823 -0.34663,-0.2179c-1.09766,-0.70729 -2.07128,-1.5789 -2.70676,-2.42193l-0.09345,-0.11967l0.47067,-0.13574c1.68727,-0.48403 3.12136,-1.00735 4.54526,-1.64856c0.2022,-0.08752 0.36702,-0.15896 0.37212,-0.15896zm5.11448,1.87718c0,0 0.0051,0.00536 0,0c0.0051,0.12503 -0.25827,1.24669 -0.47577,2.05757c-0.18181,0.6805 -0.33643,1.21275 -0.62189,2.15581c-0.12404,0.41437 -0.23279,0.7573 -0.23788,0.7573c-0.0051,0 -0.03568,-0.00536 -0.06797,-0.01607c-1.53774,-0.2947 -2.91406,-0.70193 -4.20882,-1.24669c-0.36192,-0.15182 -0.88017,-0.39651 -0.91075,-0.42509c-0.01019,-0.01072 0.30075,-0.16253 0.69326,-0.34293c2.35504,-1.08237 4.79843,-2.31298 5.63782,-2.83988c0.09855,-0.06609 0.17671,-0.10002 0.19201,-0.10002zm-11.80747,0.42509c0.01019,0.01072 -0.64738,1.00735 -1.56833,2.36121c-0.32114,0.47331 -0.69326,1.02879 -0.83259,1.23597c-0.13933,0.20719 -0.35173,0.53404 -0.47067,0.72872l-0.21749,0.35365l-0.23279,-0.20719c-0.27357,-0.23934 -0.75103,-0.75016 -0.96342,-1.03414c-0.44518,-0.58226 -0.74593,-1.19668 -0.86487,-1.75751c-0.05777,-0.26077 -0.05777,-0.39115 -0.0051,-0.40901c0.07816,-0.02143 1.45958,-0.36436 2.75434,-0.6805c0.72044,-0.17325 1.55303,-0.38044 1.85379,-0.45724c0.29735,-0.07502 0.54203,-0.13396 0.54713,-0.13396zm0.66267,0.26613l0.16482,0.19647c0.74593,0.87697 1.50716,1.52353 2.4281,2.08972c0.16652,0.09823 0.29056,0.18575 0.27866,0.19111c-0.03568,0.02679 -3.19952,1.20739 -4.6642,1.74143c-0.82239,0.30542 -1.50206,0.55011 -1.50716,0.55011c-0.0051,0 -0.05097,-0.03215 -0.10365,-0.07144l-0.09345,-0.07144l0.14953,-0.22862c0.48596,-0.73944 1.09766,-1.55032 2.4281,-3.23818l0.91925,-1.15917l0,0zm4.13066,3.10779c0.0051,-0.00536 0.23279,0.08216 0.51315,0.19111c0.67287,0.26613 1.2064,0.43581 1.92005,0.62513c0.88017,0.23398 2.15284,0.4626 2.90387,0.52868c0.11384,0.01072 0.17671,0.02143 0.15462,0.03751c-0.03568,0.02143 -0.79691,0.28935 -1.35593,0.47331c-0.89036,0.29292 -3.60902,1.13774 -5.82473,1.80752c-0.4095,0.12503 -0.76122,0.22862 -0.78161,0.23398c-0.05097,0.01072 -0.22259,-0.03751 -0.22259,-0.06073c0,-0.01072 0.12404,-0.18039 0.27357,-0.36436c0.74593,-0.93591 1.48507,-1.98077 2.10186,-2.97205c0.17331,-0.27149 0.31774,-0.49475 0.31774,-0.5001zm-0.91075,0.02679c0.0051,0.00536 -0.36192,0.62513 -1.0042,1.69321c-0.27526,0.45188 -0.57941,0.9627 -0.68816,1.1431c-0.10365,0.17325 -0.25827,0.44652 -0.34663,0.59834l-0.14953,0.27684l-0.07816,-0.02143c-0.18691,-0.05358 -1.49696,-0.5394 -1.84359,-0.68586c-0.42989,-0.18039 -0.87507,-0.39651 -1.2064,-0.58226c-0.4146,-0.23398 -0.93114,-0.58226 -0.89036,-0.59298c0.01019,-0.00536 0.72044,-0.20719 1.57342,-0.45188c2.26838,-0.64835 3.52576,-1.02343 4.34815,-1.29491c0.15123,-0.05001 0.28036,-0.08752 0.28546,-0.08216zm6.44492,1.58962l0.0051,0c0.02039,0.05358 -0.8173,2.50409 -1.12315,3.27568c-0.06797,0.17325 -0.09345,0.2179 -0.12914,0.21254c-0.08836,-0.00536 -1.30496,-0.18575 -2.04579,-0.30006c-1.28966,-0.20719 -3.4527,-0.6037 -3.99643,-0.73408l-0.12404,-0.02679l0.77142,-0.18575c1.65668,-0.39115 2.45359,-0.6037 3.26069,-0.86447c1.0195,-0.32685 2.0288,-0.73408 3.05,-1.23597c0.15972,-0.0768 0.29565,-0.13574 0.33134,-0.1411z" class="st0"/>
    <path stroke="null" fill="url(#svg_17)" d="m27.66004,6.25896c-0.11384,-0.01607 -1.95234,0.6805 -3.13665,1.18596c-1.59891,0.68586 -2.8427,1.33956 -3.60902,1.90397c-0.28546,0.21254 -0.64228,0.58762 -0.69836,0.73408c-0.02039,0.05358 -0.03058,0.11967 -0.03058,0.18575l0.69326,0.69122l1.65159,0.55547l3.93016,0.73944l4.49428,0.81088l0.04588,-0.40901c-0.01529,0 -0.02549,-0.00536 -0.04078,-0.00536l-0.58961,-0.09823l-0.11894,-0.22326c-0.6117,-1.13238 -1.28457,-2.53624 -1.67707,-3.48287c-0.30585,-0.73408 -0.59471,-1.58426 -0.75613,-2.19331c-0.09006,-0.36793 -0.10025,-0.38937 -0.15802,-0.39473l0,0l0,0l0,0zm-0.08326,0.27863l0.0051,0c0.0051,0.00536 0.02549,0.15718 0.04588,0.33757c0.08836,0.76266 0.24808,1.49674 0.50295,2.29155c0.19201,0.59834 0.19201,0.56619 -0.03058,0.49475c-0.52844,-0.15182 -2.89367,-0.58226 -4.60813,-0.83232c-0.27357,-0.03751 -0.50805,-0.0768 -0.50805,-0.08216c-0.02039,-0.02143 1.23699,-0.71265 1.79092,-0.98413c0.71195,-0.34471 2.65749,-1.19846 2.80192,-1.22526zm-4.99044,2.43801l0.2022,0.07144c1.09766,0.39115 3.8571,0.94663 5.37955,1.07701c0.17162,0.01607 0.31604,0.03215 0.32114,0.03215c0.0051,0.00536 -0.13933,0.08752 -0.32624,0.18039c-0.73574,0.38579 -1.54284,0.85911 -2.10186,1.22526c-0.16482,0.10895 -0.31604,0.19647 -0.33643,0.19647c-0.02039,0 -0.12914,-0.02143 -0.24298,-0.03751l-0.2073,-0.03215l-0.51824,-0.53404c-0.91075,-0.93055 -1.6261,-1.64856 -1.89966,-1.92183l-0.27017,-0.2572zm-0.2073,0.16789l0.73064,0.95734c0.3993,0.52868 0.802,1.04486 0.89036,1.15917c0.08836,0.11431 0.15972,0.20719 0.15462,0.21254c-0.02039,0.01607 -1.05688,-0.19647 -1.60571,-0.32685c-0.56412,-0.13574 -0.79691,-0.20183 -1.14354,-0.31614l-0.28546,-0.09823l0,-0.0768c0.0051,-0.36436 0.44518,-0.90912 1.19111,-1.46459l0.06797,-0.04644zm6.20364,1.30563c0.02039,0 0.04588,0.04822 0.10875,0.19647c0.17671,0.40723 0.72554,1.50746 0.85978,1.72c0.04078,0.07144 0.11384,0.0768 -0.6168,-0.04822c-1.75523,-0.30006 -2.31936,-0.39651 -2.31936,-0.40723c0,-0.00536 0.05097,-0.04287 0.11894,-0.08216c0.54373,-0.31614 1.09256,-0.71801 1.57852,-1.14845c0.11894,-0.10359 0.22769,-0.20183 0.24808,-0.2179c0.0051,-0.0125 0.01529,-0.01786 0.02209,-0.0125z" class="st1"/>
    <path stroke="null" fill="url(#svg_16)" d="m20.2517,10.00795c0,0 -0.11384,0.19111 -0.0051,0.47331c0.06797,0.17325 0.26337,0.38579 0.48596,0.6037c0,0 2.30406,2.36121 2.58273,2.69878c1.27267,1.54496 1.8283,3.0685 1.87927,5.16893c0.03058,1.35028 -0.2124,2.53624 -0.8173,3.91332c-1.07727,2.47016 -3.34905,5.19751 -6.85442,8.22314l0.51315,-0.18039c0.33134,-0.26077 0.78161,-0.5394 1.83849,-1.14845c2.4383,-1.40386 5.18244,-2.69342 8.54678,-4.02227c4.84601,-1.91468 12.81338,-4.15801 17.34844,-4.88673l0.47067,-0.0768l-0.07306,-0.11967c-0.4146,-0.67514 -0.69836,-1.09309 -1.03989,-1.53961c-0.99401,-1.29491 -2.20041,-2.34513 -3.67529,-3.21674c-2.0288,-1.19132 -4.654,-2.12187 -7.97756,-2.81309c-0.62699,-0.13038 -2.00331,-0.38044 -3.12136,-0.56083c-2.37033,-0.38579 -3.90297,-0.65371 -5.59194,-0.95734c-0.6049,-0.10895 -1.51225,-0.27149 -2.11206,-0.40723c-0.31095,-0.07144 -0.90565,-0.2179 -1.37122,-0.38579c-0.37382,-0.15003 -0.91245,-0.30363 -1.02629,-0.76623zm1.33554,1.361c0.0051,-0.00536 0.08836,0.02679 0.1971,0.06609c0.1971,0.07144 0.45028,0.15182 0.75103,0.23934c0.22769,0.06609 0.45538,0.1286 0.68306,0.19111c0.31095,0.08216 0.56922,0.15718 0.57432,0.15718c0.03568,0.03751 0.55902,1.79502 0.73574,2.47016c0.06797,0.25541 0.11894,0.47331 0.11384,0.47331c-0.0051,0.00536 -0.06287,-0.08752 -0.12914,-0.21254c-0.6049,-1.12166 -1.56323,-2.25761 -2.67108,-3.17209c-0.14613,-0.10895 -0.25487,-0.20719 -0.25487,-0.21254zm2.54704,0.74123c0.02549,0 0.13933,0.01607 0.27866,0.04822c0.88017,0.20719 2.45869,0.52154 3.46799,0.70193c0.17162,0.02679 0.30585,0.06073 0.30585,0.07144c0,0.01072 -0.06287,0.04822 -0.13933,0.09288c-0.17162,0.09288 -0.85978,0.52154 -1.08746,0.68586c-0.57432,0.40187 -1.09256,0.83767 -1.46468,1.23061c-0.14953,0.15718 -0.28036,0.28756 -0.28036,0.28756s-0.03058,-0.09288 -0.05777,-0.20719c-0.18691,-0.7573 -0.57432,-1.87718 -0.92604,-2.66663c-0.05777,-0.12503 -0.10365,-0.23934 -0.10365,-0.25005c0.0017,0.01072 0.0017,0.00536 0.0068,0.00536l0,0zm4.48409,0.89662c0.03058,0.01072 0.08326,0.19647 0.18691,0.6037c0.19201,0.78945 0.28036,1.66999 0.24808,2.49159c-0.01019,0.22862 -0.02039,0.44116 -0.03058,0.46795l-0.01529,0.05358l-0.26847,-0.09288c-0.55393,-0.18575 -1.45448,-0.4626 -2.2259,-0.69122c-0.44008,-0.12503 -0.79691,-0.23934 -0.79691,-0.25005c0,-0.03215 0.64228,-0.70729 0.91585,-0.9627c0.52164,-0.48224 1.93874,-1.63606 1.98632,-1.61998zm0.35682,0.05537c0.01529,-0.01607 2.14264,0.36972 3.11116,0.56619c0.72044,0.14646 1.76543,0.37508 1.8283,0.40187c0.03058,0.01072 -0.07816,0.0768 -0.42479,0.23934c-1.36613,0.64835 -2.38222,1.23061 -3.39153,1.9379c-0.26337,0.18575 -0.48596,0.33757 -0.49106,0.33757s-0.01019,-0.15718 -0.01019,-0.34829c0,-1.03414 -0.1971,-2.079 -0.55902,-2.95955c-0.03738,-0.0893 -0.06797,-0.16968 -0.06287,-0.17504zm5.50358,1.1431c0.01529,0.01607 -0.05097,0.45724 -0.11384,0.71801c-0.18691,0.81088 -0.68816,2.01292 -1.30496,3.1453c-0.10875,0.20183 -0.2073,0.36436 -0.21749,0.36972c-0.01019,0.00536 -0.14953,-0.0768 -0.31095,-0.17504c-0.5998,-0.36972 -1.28457,-0.71801 -2.0288,-1.04486c-0.2073,-0.09288 -0.38741,-0.16789 -0.39421,-0.18039c-0.03568,-0.03215 1.6312,-1.19132 2.51136,-1.74679c0.69836,-0.44474 1.83849,-1.10916 1.85888,-1.08594zm0.39251,0.0643c0.04588,0 0.98891,0.27149 1.47997,0.42509c1.2166,0.38044 2.61501,0.91983 3.52576,1.35564l0.37721,0.18039l-0.26337,0.06609c-2.2259,0.5394 -4.13066,1.15917 -5.96915,1.94326c-0.14953,0.06609 -0.28546,0.11967 -0.29565,0.11967c-0.01019,0 0.04078,-0.12503 0.10875,-0.27684c0.55393,-1.23597 0.91075,-2.52553 0.99911,-3.62397c0.0068,-0.10717 0.02209,-0.18933 0.03738,-0.18933l0,0zm-9.37937,2.26476c0.01529,-0.01607 0.73574,0.16253 1.12315,0.27684c0.58961,0.17504 1.84359,0.61441 1.84359,0.64835c0,0.00536 -0.13933,0.13038 -0.30585,0.2822c-0.67797,0.59298 -1.33044,1.21811 -2.11206,2.01292c-0.23279,0.23398 -0.42989,0.42509 -0.44008,0.42509c-0.01019,0 -0.01529,-0.03215 -0.01019,-0.0768c0.11894,-0.91448 0.09345,-2.08972 -0.07306,-3.28104c-0.01529,-0.15182 -0.03058,-0.2822 -0.02549,-0.28756zm15.12084,0.01607c0.01019,0.01072 -0.33134,0.57691 -0.54883,0.8984c-0.31095,0.46795 -0.76632,1.08773 -1.79601,2.44872c-0.54373,0.71801 -1.15373,1.52889 -1.35593,1.80038c-0.2073,0.27149 -0.37721,0.5001 -0.38401,0.5001c-0.0051,0 -0.07306,-0.09823 -0.14443,-0.2179c-0.57941,-0.91448 -1.27437,-1.71464 -2.09677,-2.43265c-0.15462,-0.13574 -0.32624,-0.2822 -0.38231,-0.32685c-0.05777,-0.04287 -0.10365,-0.08752 -0.10365,-0.09288c0,-0.01607 0.88017,-0.41437 1.54794,-0.69657c1.17072,-0.5001 2.76454,-1.09844 3.96075,-1.48602c0.62529,-0.2054 1.29306,-0.40544 1.30326,-0.39473zm0.3993,0.10895c0.02039,-0.00536 0.14443,0.06073 0.29565,0.15182c1.25738,0.7573 2.48927,1.73072 3.46289,2.73271c0.27357,0.2822 0.95323,1.02343 0.94134,1.02879c0,0 -0.23788,0.02143 -0.51824,0.04287c-2.18002,0.17504 -4.97005,0.65907 -7.65132,1.33778c-0.18181,0.04287 -0.34153,0.08216 -0.35173,0.08216c-0.01019,0 0.19201,-0.21254 0.44518,-0.46795c1.57342,-1.59498 2.29387,-2.60054 3.14175,-4.39735c0.12064,-0.26613 0.22429,-0.49475 0.23448,-0.51082c-0.0051,0 -0.0051,0 0,0zm-11.52881,1.23954c0.07306,0.01607 0.74593,0.34829 1.25228,0.61441c0.46557,0.24469 1.16562,0.63585 1.20131,0.66978c0.0051,0.00536 -0.24298,0.1411 -0.54883,0.30006c-0.97362,0.51082 -1.80621,0.99664 -2.67618,1.55032c-0.24808,0.15718 -0.45538,0.28935 -0.46047,0.28935c-0.02039,0 -0.01529,-0.02143 0.12404,-0.28935c0.46557,-0.89304 0.83939,-1.95934 1.05178,-2.99884c0.01869,-0.08037 0.04078,-0.13574 0.05607,-0.13574zm-0.67287,0.13038c0.01529,0.01607 -0.15972,0.68586 -0.26847,1.05022c-0.2124,0.69122 -0.56922,1.55568 -0.91585,2.20939c-0.08326,0.15182 -0.2073,0.37508 -0.27526,0.5001l-0.12914,0.2179l-0.29056,-0.29292c-0.33643,-0.34293 -0.6117,-0.55547 -0.96342,-0.7448c-0.13933,-0.0768 -0.24808,-0.1411 -0.24808,-0.15182c0,-0.04287 0.88526,-0.88769 1.56323,-1.49674c0.48596,-0.44116 1.51055,-1.30742 1.52755,-1.29134zm4.11537,1.78073l0.25318,0.17325c0.57941,0.39651 1.26248,0.92519 1.78582,1.38779c0.29565,0.25541 0.86487,0.79481 0.97872,0.92519l0.06287,0.07144l-0.41969,0.12503c-2.37033,0.69122 -4.20373,1.30563 -6.34127,2.13259c-0.23788,0.09288 -0.44008,0.16789 -0.45538,0.16789c-0.03058,0 -0.05777,0.02679 0.47577,-0.48939c1.36613,-1.3217 2.57763,-2.78094 3.47818,-4.20088l0.18181,-0.29292zm-1.08237,0.2822c0.01019,0.01072 -0.69836,1.06094 -1.12315,1.65392c-0.50805,0.70729 -1.4086,1.89325 -2.0288,2.66663c-0.25827,0.3215 -0.48086,0.58762 -0.49106,0.59298c-0.01529,0.00536 -0.02039,-0.0768 -0.02039,-0.20183c0,-0.65907 -0.15972,-1.361 -0.44008,-1.95934c-0.11894,-0.25005 -0.13933,-0.31078 -0.11384,-0.33757c0.09855,-0.09288 1.60401,-0.99664 2.55724,-1.53425c0.64058,-0.35722 1.64479,-0.89126 1.66008,-0.88054l0,0zm-6.54347,1.68785c0.01529,0 0.13423,0.06609 0.26847,0.1411c0.33134,0.19111 0.62699,0.40187 0.89036,0.63049c0.01019,0.01072 -0.12404,0.12503 -0.30075,0.26077c-0.49106,0.36972 -1.23699,0.9627 -1.67198,1.32706c-0.45538,0.38044 -0.47067,0.39115 -0.41969,0.31078c0.34153,-0.55011 0.51315,-0.85911 0.69326,-1.25741c0.15972,-0.35365 0.32114,-0.77338 0.43499,-1.13774c0.04248,-0.15539 0.09515,-0.27506 0.10535,-0.27506zm1.74504,1.43601c0.02549,-0.00536 0.05777,0.04287 0.1971,0.26077c0.29565,0.4626 0.52334,1.08237 0.57941,1.58426l0.01019,0.10895l-0.70855,0.28756c-1.26927,0.51618 -2.4383,1.02879 -3.23011,1.40922c-0.22259,0.10895 -0.61,0.30542 -0.86487,0.43581c-0.25318,0.13574 -0.46047,0.23934 -0.46047,0.23398c0,-0.00536 0.15972,-0.13038 0.35682,-0.2822c1.54794,-1.1806 2.88857,-2.47552 3.89278,-3.77043c0.10875,-0.13574 0.2073,-0.26077 0.21749,-0.26613l0.01019,-0.00179l0,0zm-0.8037,0.20719c0.02039,0.02143 -0.56922,0.72337 -0.97362,1.15381c-0.99911,1.07165 -1.98802,1.90933 -3.21481,2.72557c-0.15462,0.10359 -0.29565,0.19647 -0.31095,0.20719c-0.03568,0.02143 0.01019,-0.03215 0.54883,-0.64835c0.34153,-0.38579 0.5998,-0.71265 0.89546,-1.1163c0.1971,-0.26613 0.23279,-0.30542 0.51824,-0.51618c0.76122,-0.57691 2.51646,-1.82717 2.53685,-1.80573z" class="st2"/>
   </g>
  </g>
  <g stroke="null">
   <g stroke="null">
    <path stroke="null" fill="#231F1F" d="m65.2181,20.82827c-0.14338,0 -0.28675,0.01179 -0.43013,0.01179c-2.90591,0.14151 -4.86709,1.32078 -6.01409,3.6227c-0.98059,2.08022 -0.87305,4.80197 0.01024,6.89634c1.02923,2.04485 2.69085,3.12505 5.46363,3.53308c0.5863,0.08962 0.98059,0.38444 2.11735,1.60852l1.39791,1.50946l2.53723,0l-1.68722,-1.56606c-0.93194,-0.8585 -1.68722,-1.60616 -1.68722,-1.6722c0,-0.06604 0.35588,-0.20991 0.78857,-0.33019c1.42351,-0.39623 2.6038,-1.4104 3.43077,-2.96231c0.66823,-1.2453 0.76552,-1.6321 0.86025,-3.18166c0.25347,-4.618 -2.38874,-7.50484 -6.7873,-7.46946l0,0zm2.22232,12.0686c-1.23405,0.54954 -3.02625,0.66039 -4.19373,0.26416c-1.20845,-0.40803 -2.38106,-1.56606 -2.90591,-2.87505c-0.5863,-1.43163 -0.50181,-4.07318 0.16642,-5.26424c1.07532,-1.8939 2.49883,-2.76656 4.57778,-2.76656c3.08513,0 4.83892,1.74059 5.06935,5.01188c0.18178,2.73354 -0.81161,4.78074 -2.71389,5.62981l0,0zm43.81403,-8.12749c-1.06508,0 -1.87924,0.39623 -2.42714,1.17926l-0.43013,0.61793l0,-1.60852l-1.84084,0l0,9.64874l1.84084,0l0,-3.08496c0,-2.8208 0.0384,-3.14864 0.46597,-3.92223c0.58886,-1.05898 1.60273,-1.58493 2.58332,-1.33257l0.65799,0.17689l0,-1.6722l-0.85001,0l0,-0.00236l0,0zm-10.81717,-0.08727c-0.361,0 -0.74248,0.04481 -1.12396,0.12029c-2.46299,0.59435 -3.85322,2.76656 -3.76617,5.00008c0,1.87267 0.39428,2.80665 1.37487,3.7878c2.00726,1.51889 3.82505,1.63918 6.27524,0.82549c0.41733,-0.1651 0.87305,-0.35378 0.87305,-0.35378l0,-1.51889l-0.87305,0.41746c-1.98421,0.79482 -3.47686,0.79482 -4.67507,-0.14151c-0.76296,-0.71699 -1.09836,-1.5755 -1.25454,-2.55429l7.4248,0l0,-1.30191c-0.00256,-2.64863 -1.73331,-4.32318 -4.25518,-4.28073l0,0l0,0zm-3.00321,4.2312c0,0 0.27395,-1.65333 1.29038,-2.30428c0.48901,-0.3184 1.05227,-0.47171 1.60017,-0.47171c0.55046,0 1.10092,0.1651 1.55409,0.4835c0.93194,0.66039 1.08812,2.2807 1.08812,2.2807l-5.53532,0l0.00256,0.01179l0,0zm-44.38497,-1.74059c-1.99702,-1.11323 -2.88287,-1.91748 -2.77278,-2.86325c0.30979,-2.62033 3.82505,-2.25711 5.77087,-1.26653l0.0128,-1.76182c0,0 -1.07532,-0.42925 -2.61916,-0.45284c-2.3657,-0.03302 -3.89674,0.68162 -4.61362,2.13683c-1.05227,2.14626 -0.12033,3.76657 3.24899,5.57085c1.89204,1.01417 2.72926,1.8939 2.72926,2.85382c0,1.98352 -2.59612,2.67457 -5.27161,1.43163c-0.55046,-0.25236 -1.01643,-0.46463 -1.04203,-0.46463c-0.09729,0.56133 -0.04608,1.90805 -0.04608,1.90805s0.82185,0.3184 2.0559,0.53774c3.05953,0.56133 5.84511,-0.75945 6.10626,-2.90807c0.23042,-2.01654 -0.5607,-3.07316 -3.55879,-4.72178l0,0zm74.49895,-2.51419c-0.35844,0 -0.73992,0.04481 -1.13676,0.12264c-2.46043,0.59435 -3.8481,2.76656 -3.75337,5.00008c0,1.86796 0.39428,2.79486 1.37487,3.77601c2.00726,1.51889 3.82505,1.64154 6.28804,0.82549c0.41733,-0.1651 0.87049,-0.35142 0.87049,-0.35142l0,-1.52125l-0.87305,0.41982c-1.98678,0.79247 -3.48198,0.79247 -4.67507,-0.14387c-0.76808,-0.71463 -1.10092,-1.56371 -1.2571,-2.55429l7.412,0l0,-1.30191c0,-2.63919 -1.73331,-4.31611 -4.25518,-4.2713l0.00512,0zm-3.00321,4.2312c0,0 0.27651,-1.65097 1.29294,-2.31372c0.48901,-0.3184 1.04971,-0.47406 1.60017,-0.47406c0.5479,0 1.10092,0.1651 1.55409,0.48586c0.93194,0.66039 1.08812,2.29013 1.08812,2.29013l-5.53532,0l0,0.01179l0,0zm-33.74446,-1.69578c-1.99702,-1.11087 -2.87775,-1.91748 -2.77278,-2.86325c0.30979,-2.62268 3.82505,-2.25711 5.77087,-1.26653l0.0128,-1.76182c0,0 -1.07532,-0.42925 -2.61916,-0.45048c-2.3657,-0.03302 -3.89674,0.68162 -4.61362,2.13683c-1.05227,2.14626 -0.10753,3.76657 3.25155,5.57085c1.88948,1.01181 2.7267,1.88211 2.7267,2.84203c0,1.98352 -2.59356,2.68637 -5.27161,1.43163c-0.5479,-0.25236 -1.01387,-0.45991 -1.04203,-0.45991c-0.09729,0.56133 -0.04608,1.90805 -0.04608,1.90805s0.81161,0.30661 2.0431,0.53774c3.06209,0.56369 5.84767,-0.75709 6.11138,-2.90571c0.2253,-2.00947 -0.56326,-3.06609 -3.5511,-4.71942l0,0l0,0zm47.56483,-2.4458c-1.06508,0 -1.88692,0.39859 -2.42714,1.17926l-0.43013,0.61558l0,-1.60616l-1.84084,0l0,9.64639l1.84084,0l0,-3.08496c0,-2.81844 0.03584,-3.14864 0.46597,-3.91988c0.58886,-1.05662 1.60273,-1.58493 2.58332,-1.33257l0.65799,0.17689l0,-1.67691l-0.85001,0.00236l0,0zm-62.20706,2.38919l0,-6.14633l-1.8562,0l0,13.61107l7.80629,0l0,-1.60852l-5.95008,0l0,-5.85623l0,0zm42.92561,1.91748l-1.53105,3.66751l-1.47216,-3.68874l-1.4952,-4.08733l-1.89973,0c1.23149,3.21468 2.57052,6.48596 3.91978,9.65818c0.5863,0.01179 1.17261,0 1.75635,0l2.06614,-4.77838l2.10455,-4.87744l-1.81524,0c0.00512,0 -0.79881,1.93635 -1.63346,4.1062l0,0zm-38.64995,-11.77142c0.29955,0 0.5479,-0.08727 0.75528,-0.27831c0.20226,-0.18632 0.30979,-0.40567 0.30979,-0.68162c0,-0.27595 -0.10753,-0.50473 -0.30979,-0.68162c-0.20482,-0.17689 -0.44293,-0.26416 -0.73992,-0.26416c-0.30211,0 -0.55046,0.08962 -0.75272,0.27595c-0.20482,0.18632 -0.29955,0.41746 -0.29955,0.68162c0,0.27831 0.09729,0.50708 0.29955,0.68162c0.19202,0.17689 0.44037,0.26416 0.73992,0.26416l0,0.00236l-0.00256,0zm-0.65799,-1.56606c0.17922,-0.1651 0.39428,-0.24057 0.67079,-0.24057c0.26115,0 0.47621,0.07547 0.65799,0.24057c0.17922,0.1651 0.27395,0.36321 0.27395,0.60614c0,0.24293 -0.09473,0.45284 -0.27395,0.61558c-0.18178,0.1651 -0.39684,0.24293 -0.65799,0.24293c-0.26371,0 -0.47877,-0.07547 -0.65799,-0.24293c-0.17922,-0.1651 -0.27395,-0.37265 -0.27395,-0.61558c0.00256,-0.24293 0.08449,-0.44105 0.26115,-0.60614zm0.44293,0.69577l0.12033,0c0.08449,0 0.16898,0.07547 0.24067,0.21934l0.14338,0.29717l0.2253,0l-0.17922,-0.33019c-0.07169,-0.13208 -0.14338,-0.20991 -0.22786,-0.23114c0.10497,-0.02359 0.18946,-0.0566 0.24835,-0.12029c0.06145,-0.0566 0.08193,-0.13444 0.08193,-0.2217c0,-0.10142 -0.03328,-0.17689 -0.10753,-0.23349c-0.08193,-0.06368 -0.21506,-0.0967 -0.38404,-0.0967l-0.38148,0l0,1.23351l0.19202,0l0,-0.51888l0.02816,0.00236zm0,-0.57548l0.16642,0c0.12033,0 0.20482,0.02359 0.25347,0.0566c0.04608,0.03302 0.05633,0.07547 0.05633,0.1533c0,0.14387 -0.09729,0.20991 -0.27395,0.20991l-0.20482,0l0,-0.41982l0.00256,0zm-30.66188,0.46463c0,-0.42925 -0.0128,-0.74765 -0.0256,-0.93634l0.01024,0c0.04865,0.2217 0.10753,0.3868 0.15362,0.49765l1.78195,3.66751l0.29955,0l1.78195,-3.70053c0.04865,-0.10142 0.09729,-0.25236 0.15618,-0.46463l0.0128,0c-0.03584,0.36557 -0.04865,0.68397 -0.04865,0.93869l0,3.2359l0.60935,0l0,-4.8114l-0.76552,0l-1.63858,3.34675c-0.06145,0.13208 -0.14338,0.33019 -0.25091,0.59435l-0.0256,0c-0.03584,-0.12972 -0.12033,-0.32784 -0.23811,-0.57076l-1.59505,-3.38213l-0.81161,0l0,4.8114l0.5863,0l0,-3.22647l0.00768,0zm6.07298,0.00943l0.52742,0l0,2.99769l-0.52742,0l0,-2.99769zm0.26371,-1.09907c0.11009,0 0.20226,-0.03302 0.27395,-0.10142c0.07169,-0.06604 0.12033,-0.15095 0.12033,-0.25236c0,-0.09906 -0.03584,-0.18632 -0.12033,-0.25236c-0.07425,-0.06604 -0.16898,-0.10142 -0.27651,-0.10142c-0.10753,0 -0.20226,0.03302 -0.27395,0.10142c-0.07169,0.06604 -0.12033,0.1533 -0.12033,0.25236c0,0.11085 0.03584,0.18632 0.12033,0.25236c0.08193,0.06604 0.16642,0.10142 0.27651,0.10142l0,0zm4.01708,4.16045l0,-0.52831c-0.28675,0.19812 -0.59654,0.29717 -0.91914,0.29717c-0.38404,0 -0.69384,-0.12029 -0.9217,-0.35378c-0.2253,-0.22878 -0.34564,-0.54954 -0.34564,-0.94813c0,-0.41746 0.12033,-0.74765 0.37124,-1.00002c0.24067,-0.24293 0.55046,-0.36321 0.93194,-0.36321c0.31235,0 0.60935,0.08962 0.88586,0.26651l0,-0.56133c-0.25091,-0.12029 -0.53766,-0.17689 -0.86025,-0.17689c-0.59654,0 -1.06252,0.17689 -1.41071,0.51888c-0.34564,0.34199 -0.52486,0.80426 -0.52486,1.36323c0,0.49765 0.15362,0.91511 0.47621,1.23587c0.3354,0.32784 0.76552,0.49529 1.29038,0.49529c0.40452,-0.01179 0.73736,-0.08962 1.02667,-0.24529zm1.50544,-1.59672c0,-0.39623 0.09473,-0.71463 0.27395,-0.93398c0.16642,-0.19812 0.37124,-0.29717 0.60935,-0.29717c0.20226,0 0.34564,0.03302 0.45317,0.11085l0,-0.57312c-0.08193,-0.03302 -0.20226,-0.04481 -0.35588,-0.04481c-0.21506,0 -0.40708,0.06604 -0.57606,0.18868c-0.17922,0.12972 -0.32003,0.32784 -0.40452,0.5802l-0.0128,0l0,-0.70284l-0.59654,0l0,3.43402l0.59654,0l0,-1.76182l0.0128,0zm3.43077,1.83022c0.56326,0 1.01387,-0.16746 1.34927,-0.49765c0.3354,-0.32784 0.50181,-0.77124 0.50181,-1.32078c0,-0.56133 -0.15362,-0.99058 -0.46597,-1.31134c-0.30979,-0.3184 -0.73992,-0.47406 -1.30318,-0.47406c-0.56326,0 -1.01387,0.1533 -1.34927,0.45284c-0.35844,0.32784 -0.5479,0.79247 -0.5479,1.38682c0,0.51888 0.15362,0.94813 0.47621,1.26653c0.3354,0.33255 0.77832,0.49765 1.33903,0.49765l0,0zm-0.85001,-2.79722c0.22786,-0.2217 0.52742,-0.33019 0.8961,-0.33019c0.38404,0 0.67079,0.11085 0.88586,0.33019c0.21506,0.23114 0.32259,0.56133 0.32259,1.00238c0,0.41982 -0.09729,0.75001 -0.29955,0.96936c-0.20226,0.23114 -0.50181,0.35378 -0.8961,0.35378c-0.38404,0 -0.68103,-0.12264 -0.9089,-0.35378c-0.2253,-0.23349 -0.3354,-0.54954 -0.3354,-0.96936c-0.02048,-0.41746 0.09729,-0.75945 0.3354,-1.00238zm5.32026,2.49768c0.22786,-0.18632 0.3482,-0.41746 0.3482,-0.7052c0,-0.25236 -0.09729,-0.46227 -0.27395,-0.62737c-0.14594,-0.13208 -0.37124,-0.25236 -0.69384,-0.37501c-0.28931,-0.11085 -0.46597,-0.20991 -0.56326,-0.28774c-0.09473,-0.08727 -0.15362,-0.19812 -0.15362,-0.35378c0,-0.14387 0.06145,-0.25236 0.17922,-0.34199c0.12033,-0.08727 0.27395,-0.13208 0.47877,-0.13208c0.32259,0 0.59654,0.07783 0.85001,0.24293l0,-0.54954c-0.24067,-0.11085 -0.50437,-0.1651 -0.80137,-0.1651c-0.38404,0 -0.70664,0.0967 -0.94474,0.28538c-0.25091,0.18632 -0.37124,0.42925 -0.37124,0.71463c0,0.25236 0.08193,0.46227 0.23811,0.61558c0.13057,0.13208 0.35588,0.26416 0.66823,0.38444c0.29955,0.12029 0.50181,0.23114 0.60935,0.3184c0.10753,0.08962 0.15362,0.19812 0.15362,0.32784c0,0.32076 -0.23811,0.48586 -0.70408,0.48586c-0.35844,0 -0.68103,-0.10849 -0.97035,-0.32784l0,0.59435c0.26115,0.14387 0.5735,0.20991 0.91914,0.20991c0.44293,-0.02123 0.78857,-0.12029 1.02923,-0.3184l0.00256,0.00472zm2.84703,-3.30194c-0.56326,0 -1.01387,0.1533 -1.34927,0.45284c-0.35588,0.32784 -0.5479,0.79247 -0.5479,1.38682c0,0.51888 0.15618,0.94813 0.47621,1.26653c0.3354,0.33019 0.77832,0.49529 1.33903,0.49529c0.57606,0 1.01387,-0.16746 1.34927,-0.49765c0.3354,-0.32784 0.50437,-0.77124 0.50437,-1.32078c0,-0.56133 -0.15618,-0.99058 -0.46597,-1.31134c-0.32259,-0.3184 -0.75528,-0.47406 -1.30318,-0.47406l-0.00256,0.00236zm1.15725,1.80428c0,0.41982 -0.09473,0.75001 -0.29955,0.96936c-0.20226,0.23114 -0.50181,0.35378 -0.8961,0.35378c-0.38404,0 -0.68103,-0.12264 -0.9089,-0.35378c-0.2253,-0.23349 -0.3354,-0.54954 -0.3354,-0.96936c0,-0.44105 0.12033,-0.78303 0.35844,-1.01181c0.2253,-0.21934 0.52486,-0.33019 0.8961,-0.33019c0.37124,0 0.66823,0.11085 0.8833,0.33019c0.19458,0.24293 0.30211,0.57076 0.30211,1.01181l0,0zm1.61554,1.71937l0.59654,0l0,-2.97411l0.87305,0l0,-0.46227l-0.87305,0l0,-0.53067c0,-0.4835 0.20226,-0.72407 0.62215,-0.72407c0.14082,0 0.28419,0.03302 0.39172,0.08727l0,-0.49529c-0.10753,-0.04481 -0.25091,-0.05425 -0.43013,-0.05425c-0.32259,0 -0.5863,0.08962 -0.80137,0.27595c-0.25091,0.21934 -0.38404,0.50473 -0.38404,0.89152l0,0.56369l-0.62983,0l0,0.46227l0.62983,0l0,2.96231l0.00512,-0.00236zm2.45019,-0.93634c0,0.67218 0.32259,1.01417 0.98059,1.01417c0.23811,0 0.41733,-0.03538 0.56326,-0.11321l0,-0.47171c-0.11009,0.07547 -0.24067,0.11085 -0.38404,0.11085c-0.20226,0 -0.34564,-0.04481 -0.43013,-0.14387c-0.08449,-0.09906 -0.13313,-0.26416 -0.13313,-0.49529l0,-1.93871l0.94474,0l0,-0.46227l-0.94474,0l0,-1.01181c-0.20482,0.06604 -0.40708,0.12029 -0.59654,0.17689l0,0.83492l-0.64519,0l0,0.46227l0.64519,0l0,2.03777l0,0zm64.16055,6.33265c-0.20226,-0.17689 -0.44293,-0.26416 -0.73992,-0.26416c-0.30211,0 -0.55046,0.08962 -0.75528,0.27831c-0.20226,0.18632 -0.29955,0.41746 -0.29955,0.68162c0,0.27595 0.09729,0.50473 0.29699,0.68162c0.20226,0.17689 0.45317,0.26416 0.75528,0.26416c0.29699,0 0.5479,-0.08962 0.75528,-0.27595c0.20226,-0.18868 0.30723,-0.40803 0.30723,-0.68162c-0.01024,-0.27831 -0.12033,-0.50708 -0.32003,-0.68397l0,0zm-0.09729,1.29955c-0.17922,0.1651 -0.39428,0.24057 -0.65799,0.24057c-0.26115,0 -0.47621,-0.07547 -0.65799,-0.24057c-0.17922,-0.16746 -0.27395,-0.37501 -0.27395,-0.61793c0,-0.24057 0.08193,-0.43869 0.26371,-0.60614c0.17922,-0.1651 0.39428,-0.24057 0.66823,-0.24057c0.26115,0 0.47621,0.07547 0.65799,0.24057c0.17922,0.16746 0.27395,0.36557 0.27395,0.60614c0,0.25472 -0.08193,0.45048 -0.27395,0.61793zm-0.53766,-0.56133c0.10753,-0.02359 0.19202,-0.06604 0.25091,-0.12029c0.06145,-0.0566 0.08193,-0.13444 0.08193,-0.2217c0,-0.09906 -0.03328,-0.17689 -0.10753,-0.23114c-0.08193,-0.06368 -0.21506,-0.0967 -0.38404,-0.0967l-0.38148,0l0,1.23351l0.19202,0l0,-0.51888l0.12033,0c0.08193,0 0.16386,0.07547 0.23811,0.21934l0.14338,0.29717l0.22786,0l-0.17922,-0.33019c-0.06145,-0.14387 -0.13313,-0.20991 -0.20482,-0.23114l0.00256,0l0,0zm-0.13057,-0.11085l-0.20482,0l0,-0.41746l0.16898,0c0.12033,0 0.20226,0.02123 0.25091,0.05425c0.04865,0.03302 0.05889,0.07547 0.05889,0.1533c0,0.14387 -0.09729,0.20991 -0.27395,0.20991l0,0zm-33.35273,-9.60157l0.16642,0l0,-1.23351l0.44293,0l0,-0.1533l-1.05227,0l0,0.1533l0.44293,0l0,1.23351l0,0zm1.01387,-0.9269c0,-0.12029 0,-0.21934 -0.01024,-0.27359c0.01024,0.06604 0.03584,0.11085 0.04608,0.14151l0.51462,1.05898l0.08193,0l0.51462,-1.06841c0.0128,-0.03302 0.0256,-0.07547 0.04865,-0.13208c-0.01024,0.11085 -0.01024,0.19812 -0.01024,0.26416l0,0.93398l0.17922,0l0,-1.38682l-0.21506,0l-0.46597,0.95756c-0.01024,0.03538 -0.04865,0.10142 -0.07169,0.17689l-0.0128,0c-0.01024,-0.04481 -0.03328,-0.08962 -0.06913,-0.1651l-0.46597,-0.96936l-0.24067,0l0,1.38917l0.16898,0l0,-0.9269l0.00768,0z" class="st3"/>
   </g>
  </g>
 </g>
 <defs>
  <filter id="_blur">
   <feGaussianBlur in="SourceGraphic" stdDeviation="0"/>
  </filter>
  <linearGradient gradientTransform="matrix(16.96143913269043,-10.534964561462402,-10.022250175476074,-17.829145431518555,-8.207083940505981,88.10479554533958)" y2="1.193" x2="1.6555" y1="1.193" x1="1.5095" gradientUnits="userSpaceOnUse" id="svg_18">
   <stop stop-color="#909CA9" offset="0"/>
   <stop stop-color="#EDEDEE" offset="1"/>
  </linearGradient>
  <linearGradient gradientTransform="matrix(13.647598266601562,0,0,-14.34577751159668,6.8813159465789795,-122.7265490591526)" y2="-9.2285" x2="1.1221" y1="-9.2285" x1="0.9761" gradientUnits="userSpaceOnUse" id="svg_17">
   <stop stop-color="#939FAB" offset="0"/>
   <stop stop-color="#DCDEE1" offset="1"/>
  </linearGradient>
  <radialGradient gradientUnits="userSpaceOnUse" gradientTransform="matrix(-17.400348663330078,-2.7474300861358643,-5.286176681518555,36.58100128173828,75.7472083568573,-57.00429716706276)" r="0.146" cy="2.2303" cx="1.9367" id="svg_16">
   <stop stop-color="#EE352C" offset="0"/>
   <stop stop-color="#A91D22" offset="1"/>
  </radialGradient>
 </defs>
</svg>